<?xml version="1.0" encoding="UTF-8" standalone="no"?>
<!-- Generator: Adobe Illustrator 16.0.0, SVG Export Plug-In . SVG Version: 6.00 Build 0)  -->

<svg
   xmlns:dc="http://purl.org/dc/elements/1.1/"
   xmlns:cc="http://creativecommons.org/ns#"
   xmlns:rdf="http://www.w3.org/1999/02/22-rdf-syntax-ns#"
   xmlns:svg="http://www.w3.org/2000/svg"
   xmlns="http://www.w3.org/2000/svg"
   xmlns:sodipodi="http://sodipodi.sourceforge.net/DTD/sodipodi-0.dtd"
   xmlns:inkscape="http://www.inkscape.org/namespaces/inkscape"
   version="1.1"
   x="0px"
   y="0px"
   width="24px"
   height="24.001px"
   viewBox="0 0 24 24.001"
   enable-background="new 0 0 24 24.001"
   xml:space="preserve"
   id="svg3750"
   sodipodi:docname="feedback.svg"
   inkscape:version="0.92.1 15371"><metadata
     id="metadata3756"><rdf:RDF><cc:Work
         rdf:about=""><dc:format>image/svg+xml</dc:format><dc:type
           rdf:resource="http://purl.org/dc/dcmitype/StillImage" /></cc:Work></rdf:RDF></metadata><defs
     id="defs3754" /><sodipodi:namedview
     pagecolor="#ffffff"
     bordercolor="#666666"
     borderopacity="1"
     objecttolerance="10"
     gridtolerance="10"
     guidetolerance="10"
     inkscape:pageopacity="0"
     inkscape:pageshadow="2"
     inkscape:window-width="1829"
     inkscape:window-height="1053"
     id="namedview3752"
     showgrid="false"
     inkscape:zoom="37.123454"
     inkscape:cx="12"
     inkscape:cy="12.0005"
     inkscape:window-x="91"
     inkscape:window-y="27"
     inkscape:window-maximized="1"
     inkscape:current-layer="svg3750" /><g
     id="Frames-24px"><rect
       fill="none"
       width="24"
       height="24.001"
       id="rect3738" /></g><g
     id="Outline"><g
       id="g3747"><polygon
         fill="#757575"
         points="13.001,18.002 13.001,15.002 16.001,15.002 16.001,13.002 13.001,13.002 13.001,10.002     11.001,10.002 11.001,13.002 8.001,13.002 8.001,15.002 11.001,15.002 11.001,18.002   "
         id="polygon3741"
         style="fill:#ffffff" /><path
         fill="#757575"
         d="M20.001,3.002h-2v3h1v15h-14v-15h1v-3h-2c-1.103,0-2,0.897-2,2v17c0,1.103,0.897,2,2,2h16    c1.103,0,2-0.897,2-2v-17C22.001,3.899,21.104,3.002,20.001,3.002z"
         id="path3743"
         style="fill:#ffffff" /><path
         fill="#757575"
         d="M8.001,7.002h8c0.552,0,1-0.448,1-1v-3c0-0.552-0.448-1-1-1H14.83c-0.413-1.164-1.525-2-2.829-2    s-2.416,0.836-2.829,2H8.001c-0.552,0-1,0.448-1,1v3C7.001,6.554,7.449,7.002,8.001,7.002z"
         id="path3745"
         style="fill:#ffffff" /></g></g></svg>